<?xml version="1.0" encoding="utf-8"?>
<!-- Generator: Adobe Illustrator 16.0.0, SVG Export Plug-In . SVG Version: 6.00 Build 0)  -->
<!DOCTYPE svg PUBLIC "-//W3C//DTD SVG 1.1//EN" "http://www.w3.org/Graphics/SVG/1.1/DTD/svg11.dtd">
<svg version="1.1" id="Layer_1" xmlns="http://www.w3.org/2000/svg" xmlns:xlink="http://www.w3.org/1999/xlink" x="0px" y="0px"
	 width="1224px" height="792px" viewBox="0 0 1224 792" enable-background="new 0 0 1224 792" xml:space="preserve">
<path fill="#FFFFFF" d="M1106.451,100.27c-35.083,15.559-72.785,26.076-112.361,30.804c40.393-24.21,71.413-62.549,86.018-108.233
	c-37.797,22.419-79.666,38.7-124.228,47.474c-35.686-38.022-86.529-61.78-142.795-61.78c-108.046,0-195.638,87.591-195.638,195.628
	c0,15.334,1.731,30.263,5.065,44.583c-162.589-8.158-306.739-86.043-403.229-204.402c-16.839,28.894-26.485,62.499-26.485,98.352
	c0,67.871,34.537,127.75,87.029,162.833c-32.067-1.015-62.233-9.817-88.61-24.47c-0.014,0.817-0.018,1.635-0.018,2.459
	c0,94.787,67.436,173.857,156.931,191.829c-16.417,4.468-33.7,6.858-51.541,6.858c-12.606,0-24.862-1.226-36.807-3.508
	c24.896,77.723,97.143,134.285,182.749,135.863c-66.954,52.47-151.307,83.744-242.963,83.744c-15.79,0-31.364-0.927-46.667-2.732
	c86.576,55.508,189.408,87.893,299.886,87.893c359.84,0,556.612-298.097,556.612-556.618c0-8.481-0.19-16.918-0.565-25.307
	C1047.055,173.957,1080.225,139.501,1106.451,100.27z"/>
</svg>
